<svg id="visual" viewBox="0 0 1920 1080" width="1920" height="1080" xmlns="http://www.w3.org/2000/svg" xmlns:xlink="http://www.w3.org/1999/xlink" version="1.1"><path d="M0 141L20 142.8C40 144.7 80 148.3 120 154.2C160 160 200 168 240 173.3C280 178.7 320 181.3 360 174.2C400 167 440 150 480 146.5C520 143 560 153 600 155.2C640 157.3 680 151.7 720 155C760 158.3 800 170.7 840 177C880 183.3 920 183.7 960 182.7C1000 181.7 1040 179.3 1080 179C1120 178.7 1160 180.3 1200 174C1240 167.7 1280 153.3 1320 150.3C1360 147.3 1400 155.7 1440 157.3C1480 159 1520 154 1560 157.8C1600 161.7 1640 174.3 1680 173.2C1720 172 1760 157 1800 150C1840 143 1880 144 1900 144.5L1920 145L1920 0L1900 0C1880 0 1840 0 1800 0C1760 0 1720 0 1680 0C1640 0 1600 0 1560 0C1520 0 1480 0 1440 0C1400 0 1360 0 1320 0C1280 0 1240 0 1200 0C1160 0 1120 0 1080 0C1040 0 1000 0 960 0C920 0 880 0 840 0C800 0 760 0 720 0C680 0 640 0 600 0C560 0 520 0 480 0C440 0 400 0 360 0C320 0 280 0 240 0C200 0 160 0 120 0C80 0 40 0 20 0L0 0Z" fill="#102c54" stroke-linecap="round" stroke-linejoin="miter"></path></svg>